<?xml version="1.0" encoding="utf-8" ?>
<svg xmlns="http://www.w3.org/2000/svg" xmlns:xlink="http://www.w3.org/1999/xlink" width="17" height="17">
	<defs>
		<linearGradient id="gradient_0" gradientUnits="userSpaceOnUse" x1="7.8255501" y1="2.5446181" x2="7.8255501" y2="15.642885">
			<stop offset="0" stop-color="#F5586F"/>
			<stop offset="1" stop-color="#F2233A"/>
		</linearGradient>
	</defs>
	<path fill="url(#gradient_0)" transform="translate(-7.62939e-06 -1.43051e-05)" d="M12.165436 0C14.090515 -4.4408921e-16 15.6511 1.5605849 15.6511 3.4856639L15.6511 12.157222C15.6511 14.0823 14.090515 15.642885 12.165436 15.642885L3.4856639 15.642885C1.5605849 15.642885 1.3322676e-15 14.0823 0 12.157222L0 3.4856639C-4.4408921e-16 1.5605849 1.5605849 4.4408921e-16 3.4856639 0L12.165436 0ZM10.980526 2.2723434L10.899015 2.2804897L5.8162451 3.3144238C5.6038537 3.35762 5.4512935 3.5442829 5.4512935 3.7608876L5.4512935 9.7910795C5.4512935 9.9939814 5.3114591 10.170115 5.1137691 10.216247L3.9644768 10.484416C3.405782 10.614799 3.0105574 11.112676 3.0105574 11.68607L3.0105574 11.717736C3.0105574 12.403593 3.5781605 12.953486 4.2640133 12.932148L4.586874 12.922087C5.4072652 12.896534 6.059103 12.22446 6.059103 11.404081L6.059103 5.9887195C6.059103 5.8621712 6.148375 5.7531648 6.2724824 5.7281818L10.496646 4.8769732C10.637772 4.8485351 10.769629 4.9563646 10.769629 5.1002641L10.769629 8.7913017C10.769629 8.9673223 10.646205 9.1192703 10.473815 9.1553783L9.3153677 9.3982229C8.6967697 9.5279217 8.270505 10.096191 8.3193951 10.726007C8.3666906 11.387982 8.9394369 11.887872 9.6021023 11.845537L9.9330158 11.824427C10.74524 11.772524 11.377438 11.099007 11.377438 10.285577L11.377438 2.6711481C11.377438 2.4190204 11.146204 2.2302084 10.899015 2.2804897L10.980526 2.2723434Z"/>
</svg>
