<?xml version="1.0" encoding="utf-8" ?>
<svg xmlns="http://www.w3.org/2000/svg" xmlns:xlink="http://www.w3.org/1999/xlink" width="265" height="188">
	<path fill="white" transform="matrix(-1.19249e-08 1 1 1.19249e-08 0 0)" d="M0 0L188 0L188 265L0 265L0 0Z"/>
	<path fill="none" stroke="black" stroke-width="3" stroke-miterlimit="10" transform="matrix(-1.19249e-08 1 1 1.19249e-08 -347 -1084)" d="M320.285 778C248.80511 778 183.81468 733.47229 127.11514 645.64056C99.08596 602.22296 80.684502 558.63312 78.680565 553.80817L0 365.02524L311.99667 104.2924L334.80576 158.37117C371.74106 129.06216 412.16507 114.23548 455.32245 114.23548C479.97455 114.23548 504.87842 119.36456 531.01007 129.84619C561.96991 78.152443 617.58441 0 707.76428 0C712.16412 0 716.61066 0.1941721 720.97675 0.59717083C789.43518 6.8839507 845.8725 55.313404 888.93903 144.64723C912.95258 123.64733 937.72144 108.53854 964.04523 98.771317C986.23389 90.550148 1009.1728 86.39193 1032.2336 86.39193C1098.3195 86.39193 1163.4475 118.77837 1231.3452 185.42337C1242.2059 196.08452 1251.125 203.79645 1258.2401 209.34317L1292.3823 135.45886L1575 395.62384L1489.9624 579.72095C1480.8641 599.45691 1430.2206 699.41156 1327.8744 727.58484C1309.8492 732.5564 1291.1442 735.06964 1272.2858 735.06964C1201.3873 735.0733 1125.7568 699.25037 1047.2242 628.50214C1008.6666 679.46313 956.02686 731.44635 881.15167 739.19855C874.11456 739.9093 867.22534 740.26099 860.62433 740.26099C788.1944 740.26099 726.19684 701.86621 676.03351 626.0365C639.37592 651.82477 600.93768 664.41296 559.16907 664.41663C542.36401 664.41663 525.28119 662.1452 508.39569 657.66827C505.18732 656.82196 501.98932 655.88403 498.77313 654.86194C464.0235 714.42145 407.34991 776.91925 322.3045 778L320.52899 778L320.285 778Z" fill-rule="evenodd"/>
	<path fill="none" stroke="black" stroke-width="3" stroke-miterlimit="10" transform="matrix(-1.19249e-08 1 1 1.19249e-08 -310.367 -1048.5)" d="M284.78775 704.7312C220.9187 704.7312 162.38136 664.22614 110.80589 584.3335C84.565186 543.68555 67.440857 503.12924 65.574493 498.6413L0 341.30695L267.44278 117.80751L290.66461 172.86447C329.32089 133.93112 372.63919 114.24281 419.82523 114.24281C452.50604 114.24281 481.14264 124.33243 504.4501 135.5358C532.29498 87.04406 583.45514 0 672.26703 0C676.10876 0 679.99207 0.17219035 683.81561 0.5238983C747.96503 6.4150066 800.44641 55.273106 839.81915 145.73898C841.81012 150.30753 843.79327 154.94934 845.78943 159.71938C874.27551 129.68132 903.72717 109.2273 935.14642 97.565987C955.17542 90.154472 975.89233 86.39193 996.73639 86.39193C1057.3478 86.39193 1117.6295 116.64248 1181.0261 178.86548C1206.9164 204.28004 1223.5735 214.95218 1232.1863 219.34486L1264.4465 149.53084L1503.585 369.66339L1432.7203 523.0777C1424.6189 540.64478 1379.4913 629.64154 1287.4062 654.99377C1271.0087 659.51471 1253.9778 661.8045 1236.7886 661.8045C1165.8408 661.80817 1089.0889 622.5304 1008.5627 545.03009C977.63409 589.29401 924.73999 657.64258 843.75696 666.02863C837.39209 666.6698 831.13892 666.99585 825.12708 666.99585C753.76141 666.99585 693.74445 625.35876 646.39233 543.12866C608.16174 575.39056 567.78705 591.14783 523.67181 591.15149C508.47357 591.15149 493.00534 589.09253 477.69025 585.0332C469.729 582.91931 461.62241 580.16791 453.22247 576.7168C424.58328 632.37091 371.39322 703.65771 286.57367 704.7312L284.99283 704.7312L284.78775 704.7312ZM1237.0248 295.39438C1237.9177 295.39438 1238.4369 295.27716 1238.6367 295.24051L1238.0112 295.33945L1237.0819 282.04413L1237.0248 295.39438Z" fill-rule="evenodd"/>
	<path fill="none" stroke="black" stroke-width="3" stroke-miterlimit="10" transform="matrix(-1.19249e-08 1 1 1.19249e-08 -273.728 -1013.01)" d="M249.29053 631.45502C193.02708 631.45502 140.94543 594.96899 94.494026 523.01538C70.039223 485.13718 54.192013 447.61432 52.465824 443.46344L0 317.57764L222.88629 131.31163L248.19252 191.30348C287.82483 140.12997 333.48972 114.23548 384.32797 114.23548C422.80518 114.23548 455.4678 130.24918 477.19965 142.16695C480.15366 137.36394 483.71765 131.37758 487.97211 123.96606C514.57623 77.595573 559.10675 0 636.76978 0C640.05603 0 643.3786 0.15020861 646.65192 0.44696221C701.8952 5.5137548 747.49518 48.528374 782.20593 128.27449C789.98804 146.15298 796.79419 163.19249 802.94098 179.08163C827.08167 148.29254 861.2395 113.05946 906.24768 96.360657C924.117 89.74781 942.61707 86.39193 961.2392 86.39193C1016.3735 86.39193 1071.8063 114.4956 1130.707 172.30759C1180.3408 221.01915 1201.3199 222.11824 1201.5276 222.1219L1201.5223 222.1219C1200.5697 222.1219 1200.0713 222.22815 1199.9701 222.2428L1200.3127 222.19151L1201.5769 239.19072L1236.5109 163.58817L1432.17 343.69928L1375.4783 466.43069C1368.3737 481.83258 1328.7466 559.87512 1246.9381 582.39545C1232.1707 586.46936 1216.8115 588.52466 1201.2914 588.52466C1134.1671 588.52832 1060.5587 549.69391 982.51154 473.08386C977.38232 468.05368 973.06036 464.17392 969.48596 461.18439C966.3996 465.55878 963.50269 469.76828 961.64929 472.46103C932.72198 514.46814 884.31335 584.78412 806.35962 592.85138C800.66187 593.42291 795.04462 593.716 789.62982 593.716C701.10089 593.716 649.47351 523.40009 617.00037 456.8833C577.11884 497.85361 534.72467 517.86798 488.1694 517.87164C474.58051 517.87164 460.72427 516.02521 446.98483 512.38354C432.1188 508.44516 418.66751 502.53574 407.09811 496.65927C383.4454 550.97986 334.57474 630.39258 250.8454 631.45502L249.45146 631.45502L249.29053 631.45502Z" fill-rule="evenodd"/>
	<path fill="none" stroke="black" stroke-width="3" stroke-miterlimit="10" transform="matrix(-1.19249e-08 1 1 1.19249e-08 -237.091 -977.508)" d="M213.79329 558.1825C165.13808 558.1825 119.51212 525.7265 78.184769 461.70462C55.536625 426.62909 40.943172 392.10309 39.357155 388.28558L0 293.85934L178.3324 144.82675L207.83858 214.77634C247.66298 148.0141 294.9606 114.23548 348.83075 114.23548C386.84589 114.23548 419.67984 132.59756 439.30133 143.56645C441.62714 144.87071 445.31573 146.92967 448.62274 148.69553C452.85388 143.04988 460.24924 131.98207 472.64667 110.38135C497.86981 66.421516 535.98877 0 601.27252 0C604.0033 0 606.77039 0.12456324 609.48816 0.36636245C655.82275 4.6198306 694.54395 41.783638 724.59009 110.82098C735.96216 136.94263 745.30438 161.54387 753.55115 183.2545C756.32605 190.57443 758.7998 196.97112 760.99841 202.56914C785.6012 166.88542 822.2146 115.613 877.34888 95.158989C893.0611 89.337486 909.3418 86.39193 925.74194 86.39193C975.39655 86.39193 1025.983 112.34872 1080.3879 165.74971C1133.6896 218.05161 1159.3904 222.1219 1165.9991 222.1219C1166.6688 222.1219 1167.0063 222.06694 1167.0375 222.06328C1166.8116 222.10358 1165.0803 222.45163 1162.3495 224.34938L1172.9818 254.68785L1208.5751 177.65648L1360.755 317.73883L1318.2415 409.78741C1312.131 423.02042 1278.007 490.10504 1206.4698 509.80801C1193.343 513.41669 1179.6581 515.2522 1165.7941 515.2522C1104.0718 515.25586 1035.4473 478.62326 961.83362 406.36923C944.58984 389.45062 934.24048 383.02097 929.29297 380.62128C923.32007 387.3587 912.97589 402.39423 907.53259 410.29666C879.47485 451.04715 837.078 512.6217 768.96484 519.67047C763.93427 520.18707 758.94775 520.44354 754.13257 520.44354C664.45374 520.44354 618.0802 438.67508 587.81604 365.86053C546.11749 418.75961 501.64926 444.59549 452.66956 444.59918C440.68747 444.59918 428.44061 442.96884 416.27939 439.74487C395.16794 434.14685 376.5069 423.70551 362.88428 416.0925C362.22495 415.71881 361.46439 415.29382 360.63113 414.83221C358.5675 419.17361 356.18457 424.56281 353.50833 431.23059C334.62405 478.22757 291.53159 557.21167 215.11455 558.1825L213.89453 558.1825L213.79329 558.1825Z" fill-rule="evenodd"/>
	<path fill="none" stroke="black" stroke-width="3" stroke-miterlimit="10" transform="matrix(-1.19249e-08 1 1 1.19249e-08 -200.455 -942.014)" d="M178.29866 484.91003C137.25165 484.91003 98.08139 456.47296 61.875511 400.39752C41.05479 368.13931 27.696928 336.59552 26.24589 333.09674L0 270.13004L133.7811 158.33087L160.27618 221.14737C163.56503 228.94724 167.2718 236.17191 170.92924 242.52463C210.04759 157.36734 257.87994 114.23548 313.33612 114.23548C346.3959 114.23548 375.19345 130.34077 394.24384 140.99094C401.4679 145.03191 410.3714 150.01077 414.34033 151.05858C415.54739 151.38463 416.37802 151.44691 416.86343 151.44691C425.96423 151.44691 449.56763 110.32273 457.32379 96.800293C480.76883 55.943546 512.88379 0 565.77789 0C567.95837 0 570.16217 0.095254242 572.32703 0.29675359C609.75293 3.7259061 641.59534 35.038906 666.97943 93.356483C677.94659 118.55123 687.0993 142.65422 695.17212 163.92522C706.80902 194.57144 715.22192 214.78 720.2785 224.2468C726.60181 216.90489 736.06598 203.15898 741.72479 194.94147C765.68121 160.14436 798.48663 112.49892 848.4527 93.957321C862.01044 88.934486 876.06915 86.39193 890.24731 86.39193C934.4248 86.39193 980.16235 110.20549 1030.074 159.19182C1085.8701 213.94102 1116.9468 222.1219 1130.5045 222.1219C1132.0438 222.1219 1133.4845 222.00099 1134.7745 221.77751C1137.2172 221.34155 1138.2815 220.60149 1138.2919 220.59416C1138.2477 220.62714 1137.1523 221.41483 1135.343 224.13689L1154.1676 249.00557L1180.6471 191.72115L1289.3452 291.77838L1260.9994 353.1441C1255.8883 364.2229 1227.2699 420.33865 1166.0044 437.20596C1154.5128 440.37866 1142.4971 441.97968 1130.2994 441.97968C1073.9738 441.98334 1010.3409 407.5636 941.15826 339.66196C910.20361 309.2832 895.73999 306.00424 890.95856 306.00424C883.01288 306.00424 870.93732 322.68472 853.42102 348.12494C826.5885 387.10223 789.84528 440.46661 731.57532 446.50058C727.19623 446.94754 722.84833 447.17102 718.63794 447.17102C626.34515 447.17102 586.97504 344.3624 558.29688 268.81479C528.6012 315.6286 482.99603 371.323 417.17493 371.32666C406.78925 371.32666 396.15952 369.90152 385.57913 367.10251C366.90775 362.14563 350.28439 352.84735 336.92392 345.37723C331.11719 342.12759 322.20328 337.14871 316.73917 335.05313C313.08691 339.68396 305.6604 351.0705 295.43564 376.51437C279.30807 416.64938 242.78551 484.10403 179.38629 484.91003L178.33759 484.91003L178.29866 484.91003Z" fill-rule="evenodd"/>
	<path fill="none" stroke="black" stroke-width="3" stroke-miterlimit="10" transform="matrix(-1.19249e-08 1 1 1.19249e-08 -163.822 -906.514)" d="M142.79883 411.6412C109.35744 411.6412 76.645477 387.23047 45.563656 339.08679C26.199165 309.08902 13.645994 279.1572 13.121647 277.89691L0 246.41173L89.224602 171.84598L102.47085 203.25056C114.14925 230.94025 131.5695 255.52316 140.55608 263.05557C142.12132 260.47272 144.34071 256.23026 147.04292 249.50749C183.62259 158.4884 226.40358 114.24281 277.83627 114.24281C305.93814 114.24281 330.93546 128.21587 349.18378 138.41907C358.67392 143.724 367.61118 148.7285 374.04352 150.43576C376.59515 151.11353 379.05338 151.45424 381.36362 151.45424C399.52106 151.45424 416.02759 128.47964 441.99573 83.230225C464.38431 44.216286 489.75803 0 530.27808 0C531.88489 0 533.5072 0.073272489 535.14777 0.2234811C578.12604 4.1655412 601.63855 58.156376 609.36096 75.902977C619.92578 100.1635 628.88641 123.76456 636.79315 144.59227C664.08514 216.48724 671.66479 227.33157 683.58203 227.33157C684.52429 227.33157 685.53662 227.27661 686.59833 227.1667C695.64978 226.23248 711.15955 203.70853 724.84186 183.83702C747.88715 150.36249 776.56787 108.70707 819.55133 92.759315C830.9494 88.535156 842.78876 86.39193 854.7475 86.39193C893.4505 86.39193 934.33917 108.05861 979.75482 152.63393C1038.2792 210.06491 1074.7317 222.12556 1095.0046 222.12556C1097.6368 222.12556 1100.1573 221.90575 1102.5039 221.49176C1114.1018 219.42914 1118.6107 212.82362 1118.795 212.54518C1118.3303 213.24127 1118.1174 213.73586 1118.0734 213.82013L1138.9357 235.58206L1152.7062 205.7858L1217.9276 265.82529L1203.7548 296.50812C1199.6404 305.41806 1176.5225 350.5759 1125.5336 364.61493C1115.6697 367.33698 1105.3281 368.71451 1094.7997 368.71451C1043.8809 368.72183 985.22931 336.50024 920.47772 272.94736C893.28693 246.26884 871.40973 232.73541 855.45874 232.73541C836.85217 232.73541 822.70782 251.96945 799.30432 285.96423C774.04218 322.65543 742.60736 368.31519 694.17535 373.32336C690.453 373.70804 686.74109 373.90585 683.13812 373.90585C606.0462 373.90585 573.80664 288.97571 545.36212 214.04727C539.56836 198.78094 533.65778 183.2142 527.22546 167.58517C525.47589 170.58936 523.91321 173.31143 522.72955 175.37405C496.36945 221.31224 452.33472 298.05417 381.67511 298.05783C372.90137 298.05783 363.88104 296.84885 354.86594 294.46017C338.66568 290.16272 323.96063 281.94156 310.98953 274.68759C298.73486 267.83661 286.17911 260.81711 278.06989 260.81711C277.03418 260.81711 276.10229 260.94165 275.30798 261.17615C272.7226 261.94183 258.79886 268.45209 237.35774 321.80911C223.98691 355.08582 194.03165 411.00372 143.65283 411.6412L142.79883 411.6412ZM1159.8264 257.36597C1160.6779 255.73566 1161.0205 254.7538 1161.0205 254.7538L1144.2595 241.13245L1159.8264 257.36597Z" fill-rule="evenodd"/>
	<path fill="none" stroke="black" stroke-width="3" stroke-miterlimit="10" transform="matrix(-1.19249e-08 1 1 1.19249e-08 -127.182 -871.019)" d="M107.30418 338.36499C81.473618 338.36499 55.217346 317.98792 29.25699 277.76865C11.847121 250.80437 0.47502699 223.81812 0 222.68605L44.670708 185.35005C58.264786 217.58263 87.521774 265.0925 107.30159 265.0925C107.36388 265.0925 107.42359 265.0925 107.48329 265.08884C118.22721 264.9313 127.90426 246.43367 134.12634 230.94753C196.5262 75.672127 261.28821 111.89438 304.14966 135.85449C314.8157 141.82253 324.89511 147.45352 333.75189 149.79825C371.55417 159.8439 396.1076 122.90723 426.67029 69.645462C447.99197 32.499973 468.17413 -2.5535877 497.99701 0.14650367C524.48688 2.5754869 541.36206 34.577248 551.75293 58.445763C561.92834 81.819687 570.70471 104.94083 578.45306 125.34355C608.06311 203.34578 621.23663 230.33937 652.99341 227.06409C671.89325 225.11504 688.60742 200.83986 707.96155 172.7252C729.84912 140.93593 754.65955 104.90419 790.65515 91.557602C831.28943 76.489113 876.69733 94.312645 929.44092 146.076C1000.8689 216.16847 1045.4462 225.62428 1070.2617 221.20229C1093.725 217.02576 1103.049 199.72978 1103.4305 198.99706C1103.1581 199.52829 1103.0309 199.83237 1103.0309 199.83237L1146.5153 239.85747C1144.6047 243.99004 1126.655 280.57132 1085.0707 292.02014C1034.3726 305.98956 972.02979 277.11285 899.80237 206.23271C814.74915 122.76436 785.57526 165.13783 745.19275 223.79613C721.84113 257.70663 695.37201 296.15637 656.78583 300.1424C588.54547 307.20221 561.43256 235.6736 532.68958 159.95381C524.92297 139.49246 516.88904 118.32771 507.51831 96.800247C500.97696 81.779388 496.54596 76.001854 494.60175 73.953888C488.10712 79.006027 475.53317 100.91816 467.01123 115.76317C438.46548 165.51154 395.30811 240.66713 324.16309 221.81778C310.40549 218.16148 297.50446 210.95146 285.02917 203.9686C266.8302 193.79837 249.64355 184.17036 234.46086 188.69128C216.63048 193.97789 198.06549 220.35233 179.28246 267.09653C155.79327 325.54965 127.5123 338.11954 107.92458 338.36133C107.71691 338.36499 107.51185 338.36499 107.30418 338.36499Z" fill-rule="evenodd"/>
	<path fill="none" stroke="black" stroke-width="3" stroke-miterlimit="10" transform="matrix(-1.19249e-08 1 1 1.19249e-08 -90.5427 -848.673)" d="M0 167.40176C0 167.40176 77.790215 353.14755 134.35995 212.37643C199.82024 49.488014 254.49506 135.34138 306.61304 149.16425C421.16205 179.55402 444.78619 -102.58172 507.28989 40.981075C551.2182 141.87364 566.45538 233.79764 632.54388 226.96864C714.8559 218.4617 733.80249 -16.010269 892.2746 139.51427C1050.7493 295.03879 1102.426 183.20299 1102.426 183.20299" fill-rule="evenodd"/>
</svg>
