<?xml version="1.0" encoding="utf-8" ?>
<svg xmlns="http://www.w3.org/2000/svg" xmlns:xlink="http://www.w3.org/1999/xlink" width="30" height="22">
	<path fill="white" fill-opacity="0.30980393" transform="translate(1.52588e-05 -1.90735e-05)" d="M29.087057 3.3199923C28.919083 2.6778743 28.588083 2.0919073 28.127111 1.6205806C27.666201 1.1492854 27.091471 0.80924964 26.460543 0.6345033C24.137917 0 14.854101 0 14.854101 0C14.854101 0 5.570291 0 3.2476475 0.6345033C2.6167133 0.80924964 2.0420203 1.1492854 1.5810788 1.6205806C1.1201435 2.0919073 0.78913218 2.6778743 0.62116939 3.3199923C0 5.6899557 0 10.632226 0 10.632226C0 10.632226 0 15.574497 0.62116939 17.94446C0.78913218 18.586578 1.1201435 19.172546 1.5810788 19.643885C2.0420203 20.115162 2.6167133 20.45521 3.2476475 20.62995C5.570291 21.26446 14.854101 21.26446 14.854101 21.26446C14.854101 21.26446 24.137917 21.26446 26.460543 20.62995C27.091471 20.45521 27.666201 20.115162 28.127111 19.643885C28.588083 19.172546 28.919083 18.586578 29.087057 17.94446C29.708206 15.574497 29.708206 10.632226 29.708206 10.632226C29.708206 10.632226 29.708206 5.6899557 29.087057 3.3199923Z" fill-rule="evenodd"/>
	<path fill="#FEFEFE" transform="translate(11.9875 6.22372)" d="M0 9.3356161L0 0L7.2967525 4.667841L0 9.3356161Z"/>
</svg>
