<?xml version="1.0" encoding="utf-8" ?>
<svg xmlns="http://www.w3.org/2000/svg" xmlns:xlink="http://www.w3.org/1999/xlink" width="17" height="12">
	<path fill="#FE0605" transform="translate(-7.62939e-06 -3.24249e-05)" d="M15.425034 1.7499939C15.335956 1.4115286 15.160425 1.1026607 14.915969 0.85422069C14.671545 0.60579735 14.366762 0.42656183 14.032178 0.33445165C12.800476 0 7.8772149 0 7.8772149 0C7.8772149 0 2.9539573 0 1.7222462 0.33445165C1.387658 0.42656183 1.082895 0.60579735 0.83845514 0.85422069C0.59401852 1.1026607 0.41848132 1.4115286 0.32940969 1.7499939C0 2.9992201 0 5.6043296 0 5.6043296C0 5.6043296 0 8.2094393 0.32940969 9.4586658C0.41848132 9.7971306 0.59401852 10.105999 0.83845514 10.354445C1.082895 10.602859 1.387658 10.782101 1.7222462 10.874207C2.9539573 11.208663 7.8772149 11.208663 7.8772149 11.208663C7.8772149 11.208663 12.800476 11.208663 14.032178 10.874207C14.366762 10.782101 14.671545 10.602859 14.915969 10.354445C15.160425 10.105999 15.335956 9.7971306 15.425034 9.4586658C15.754433 8.2094393 15.754433 5.6043296 15.754433 5.6043296C15.754433 5.6043296 15.754433 2.9992201 15.425034 1.7499939Z"/>
	<path fill="#FEFEFE" transform="translate(6.60669 3.56636)" d="M0 4.585362L0 0L4.06566 2.292697L0 4.585362Z"/>
</svg>
